<svg xmlns="http://www.w3.org/2000/svg" viewBox="0 0 626.06 94.27"><defs><style>.cls-1,.cls-2{fill:none;stroke:#ff7851;stroke-width:3.5px;}.cls-1{stroke-miterlimit:10;}.cls-2{stroke-linejoin:round;}.cls-3{fill:#ff7851;}.cls-4{fill:#ffb7a1;}</style></defs><g id="Layer_2" data-name="Layer 2"><circle class="cls-1" cx="82.52" cy="53.55" r="5.23"/><circle class="cls-1" cx="42.03" cy="69.74" r="5.23"/><circle class="cls-1" cx="43.19" cy="32.55" r="5.23"/><circle class="cls-1" cx="24.59" cy="31.39" r="5.23"/><circle class="cls-1" cx="67.59" cy="6.98" r="5.23"/><polyline class="cls-2" points="48.24 32.05 78.45 33.22 45.09 65.42"/><polyline class="cls-2" points="20.34 35.54 1.75 52.97 76.89 52.88"/><line class="cls-2" x1="63.34" y1="11.14" x2="47.07" y2="28.57"/><path class="cls-3" d="M295.37,439.33H272.19V435.1h51.06v4.23H300.06V499.5h-4.69Z" transform="translate(-182.25 -429.28)"/><path class="cls-3" d="M357.93,476.59H316.62a20.12,20.12,0,0,0,2.86,10,18.15,18.15,0,0,0,7.22,6.76A21.63,21.63,0,0,0,337,495.72a21.9,21.9,0,0,0,8.69-1.7,16.85,16.85,0,0,0,6.67-5l2.67,3a20.5,20.5,0,0,1-7.87,5.8,27.44,27.44,0,0,1-23-1.1,22.69,22.69,0,0,1-8.79-8.65,24.79,24.79,0,0,1-3.17-12.61,26,26,0,0,1,3-12.55,22,22,0,0,1,8.23-8.7,23.77,23.77,0,0,1,23.51,0,21.86,21.86,0,0,1,8.18,8.6,25.77,25.77,0,0,1,3,12.51ZM326,457.41a17.24,17.24,0,0,0-6.49,6.34,20.71,20.71,0,0,0-2.8,9.25h36.8a19.42,19.42,0,0,0-2.76-9.2,17.89,17.89,0,0,0-15.64-8.65A18.32,18.32,0,0,0,326,457.41Z" transform="translate(-182.25 -429.28)"/><path class="cls-3" d="M372.65,453.91a21.86,21.86,0,0,1,11.41-2.81v4.51l-1.1-.09q-8,0-12.52,5t-4.5,13.94v25h-4.61v-48h4.42V462A16.58,16.58,0,0,1,372.65,453.91Z" transform="translate(-182.25 -429.28)"/><path class="cls-3" d="M459.64,456.35q5.1,5.23,5.1,15.09V499.5h-4.6V471.8q0-8.08-3.95-12.32t-11-4.24q-8.1,0-12.84,5.06t-4.73,13.62V499.5H423V471.8q0-8.08-4-12.32t-11-4.24q-8.1,0-12.83,5.06t-4.74,13.62V499.5h-4.6v-48h4.41v10.31a17.73,17.73,0,0,1,7.13-7.87,21.74,21.74,0,0,1,11.27-2.81,20,20,0,0,1,11.09,2.95,16,16,0,0,1,6.49,8.65,18.73,18.73,0,0,1,7.49-8.47,22.43,22.43,0,0,1,11.92-3.13Q454.54,451.1,459.64,456.35Z" transform="translate(-182.25 -429.28)"/><path class="cls-3" d="M472.38,438.73a3.46,3.46,0,0,1-1.1-2.62,3.76,3.76,0,0,1,3.77-3.77,3.71,3.71,0,0,1,2.66,1.05,3.49,3.49,0,0,1,1.11,2.63,3.79,3.79,0,0,1-3.77,3.77A3.7,3.7,0,0,1,472.38,438.73Zm.37,12.74h4.6v48h-4.6Z" transform="translate(-182.25 -429.28)"/><path class="cls-4" d="M493.37,511.41a3.45,3.45,0,0,1,.94,2.62v6h-.87v-1.67a3.19,3.19,0,0,1-1.31,1.29,4.45,4.45,0,0,1-2.07.46,3.84,3.84,0,0,1-2.48-.74,2.56,2.56,0,0,1-.07-3.85,4.06,4.06,0,0,1,2.67-.72h3.23V514a2.63,2.63,0,0,0-.72-2,2.88,2.88,0,0,0-2.07-.68,5.17,5.17,0,0,0-1.8.32,4.47,4.47,0,0,0-1.44.87l-.45-.65a4.85,4.85,0,0,1,1.69-1,6,6,0,0,1,2.07-.35A3.71,3.71,0,0,1,493.37,511.41Zm-1.2,7.37a3.28,3.28,0,0,0,1.24-1.57v-1.76H490.2a3.26,3.26,0,0,0-2,.5,1.71,1.71,0,0,0-.62,1.39,1.74,1.74,0,0,0,.69,1.45,3.09,3.09,0,0,0,1.92.53A3.52,3.52,0,0,0,492.17,518.78Z" transform="translate(-182.25 -429.28)"/><path class="cls-4" d="M509.12,511.54a4,4,0,0,1,1,2.95V520h-.9v-5.41a3.34,3.34,0,0,0-.81-2.42,3,3,0,0,0-2.24-.82,3.47,3.47,0,0,0-2.61,1,3.68,3.68,0,0,0-.95,2.66v5h-.9v-9.39h.86v2a3.67,3.67,0,0,1,1.45-1.55,4.48,4.48,0,0,1,2.28-.55A3.77,3.77,0,0,1,509.12,511.54Z" transform="translate(-182.25 -429.28)"/><path class="cls-4" d="M521.36,515.5h-8.08a4,4,0,0,0,.55,2,3.61,3.61,0,0,0,1.42,1.32,4.26,4.26,0,0,0,2,.47,4.37,4.37,0,0,0,1.7-.34,3.32,3.32,0,0,0,1.3-1l.52.6a3.91,3.91,0,0,1-1.54,1.13,5.06,5.06,0,0,1-2,.4,5,5,0,0,1-2.5-.62,4.3,4.3,0,0,1-1.72-1.69,4.79,4.79,0,0,1-.62-2.46,5.08,5.08,0,0,1,.58-2.46,4.32,4.32,0,0,1,1.61-1.7,4.67,4.67,0,0,1,4.6,0,4.25,4.25,0,0,1,1.6,1.68,5.07,5.07,0,0,1,.59,2.45Zm-6.25-3.75a3.36,3.36,0,0,0-1.27,1.24,4,4,0,0,0-.54,1.81h7.2A3.87,3.87,0,0,0,520,513a3.51,3.51,0,0,0-3.06-1.69A3.68,3.68,0,0,0,515.11,511.75Z" transform="translate(-182.25 -429.28)"/><path class="cls-4" d="M528.38,519.39a2.13,2.13,0,0,1-.86.49,3.16,3.16,0,0,1-1.07.18,2.33,2.33,0,0,1-2.55-2.56v-6.14h-1.73v-.77h1.73v-2h.9v2h3v.77h-3v6a1.93,1.93,0,0,0,.44,1.39,1.68,1.68,0,0,0,1.3.48,2.07,2.07,0,0,0,1.46-.52Z" transform="translate(-182.25 -429.28)"/><path class="cls-4" d="M543.68,510.59,540.12,520h-.85l-3.17-8.15L532.92,520h-.83l-3.57-9.39h.87l3.13,8.39,3.2-8.39h.78l3.18,8.37,3.17-8.37Z" transform="translate(-182.25 -429.28)"/><path class="cls-4" d="M546.32,519.44a4.32,4.32,0,0,1-1.69-1.7,5.25,5.25,0,0,1,0-4.91,4.38,4.38,0,0,1,1.69-1.7,5,5,0,0,1,4.8,0,4.29,4.29,0,0,1,1.68,1.7,5.17,5.17,0,0,1,0,4.91,4.23,4.23,0,0,1-1.68,1.7,5,5,0,0,1-4.8,0Zm4.33-.7a3.57,3.57,0,0,0,1.35-1.4,4.47,4.47,0,0,0,0-4.11,3.64,3.64,0,0,0-1.35-1.4,4,4,0,0,0-3.87,0,3.64,3.64,0,0,0-1.35,1.4,4.55,4.55,0,0,0,0,4.11,3.57,3.57,0,0,0,1.35,1.4,3.93,3.93,0,0,0,3.87,0Z" transform="translate(-182.25 -429.28)"/><path class="cls-4" d="M558,511.06a4.33,4.33,0,0,1,2.23-.54v.88l-.21,0a3.13,3.13,0,0,0-2.45,1,3.91,3.91,0,0,0-.88,2.73V520h-.9v-9.39h.86v2.05A3.32,3.32,0,0,1,558,511.06Z" transform="translate(-182.25 -429.28)"/><path class="cls-4" d="M565.58,515l-2.44,2.23V520h-.9V506.63h.9v9.45l6-5.49h1.15l-4,3.8L570.7,520h-1.12Z" transform="translate(-182.25 -429.28)"/><path class="cls-4" d="M572.14,508.09a.64.64,0,0,1-.22-.51.69.69,0,0,1,.22-.52.73.73,0,0,1,.52-.22.72.72,0,0,1,.52.21.67.67,0,0,1,.22.51.71.71,0,0,1-.22.53.75.75,0,0,1-1,0Zm.07,2.5h.9V520h-.9Z" transform="translate(-182.25 -429.28)"/><path class="cls-4" d="M583.84,511.54a4,4,0,0,1,1,2.95V520H584v-5.41a3.34,3.34,0,0,0-.8-2.42,3,3,0,0,0-2.24-.82,3.47,3.47,0,0,0-2.61,1,3.64,3.64,0,0,0-.95,2.66v5h-.9v-9.39h.86v2a3.67,3.67,0,0,1,1.45-1.55,4.48,4.48,0,0,1,2.28-.55A3.8,3.8,0,0,1,583.84,511.54Z" transform="translate(-182.25 -429.28)"/><path class="cls-4" d="M596.6,510.59V519a4,4,0,0,1-4.56,4.57,7.26,7.26,0,0,1-2.44-.4,4.72,4.72,0,0,1-1.86-1.1l.49-.68a5,5,0,0,0,1.69,1,6.11,6.11,0,0,0,2.11.36,3.82,3.82,0,0,0,2.77-.89,3.77,3.77,0,0,0,.9-2.77V517.5a4.05,4.05,0,0,1-1.6,1.58,4.7,4.7,0,0,1-2.31.56,4.88,4.88,0,0,1-2.38-.58,4.34,4.34,0,0,1-1.69-1.63,4.87,4.87,0,0,1,0-4.72,4.32,4.32,0,0,1,1.69-1.62,5,5,0,0,1,2.38-.57,4.77,4.77,0,0,1,2.34.57,4,4,0,0,1,1.6,1.62v-2.12Zm-2.76,7.76a3.4,3.4,0,0,0,1.38-1.33,3.82,3.82,0,0,0,.5-1.95,3.76,3.76,0,0,0-.5-1.94,3.46,3.46,0,0,0-1.38-1.33,4.38,4.38,0,0,0-4,0,3.48,3.48,0,0,0-1.36,1.33,3.76,3.76,0,0,0-.5,1.94,3.82,3.82,0,0,0,.5,1.95,3.41,3.41,0,0,0,1.36,1.33,4.3,4.3,0,0,0,4,0Z" transform="translate(-182.25 -429.28)"/><path class="cls-4" d="M610,511.41a3.45,3.45,0,0,1,.94,2.62v6h-.87v-1.67a3.19,3.19,0,0,1-1.31,1.29,4.45,4.45,0,0,1-2.07.46,3.84,3.84,0,0,1-2.48-.74,2.56,2.56,0,0,1-.07-3.85,4.06,4.06,0,0,1,2.67-.72H610V514a2.67,2.67,0,0,0-.71-2,2.93,2.93,0,0,0-2.08-.68,5.11,5.11,0,0,0-1.79.32,4.52,4.52,0,0,0-1.45.87l-.45-.65a4.85,4.85,0,0,1,1.69-1,6,6,0,0,1,2.07-.35A3.71,3.71,0,0,1,610,511.41Zm-1.2,7.37a3.28,3.28,0,0,0,1.24-1.57v-1.76h-3.21a3.21,3.21,0,0,0-2,.5,1.69,1.69,0,0,0-.63,1.39,1.74,1.74,0,0,0,.69,1.45,3.09,3.09,0,0,0,1.92.53A3.52,3.52,0,0,0,608.79,518.78Z" transform="translate(-182.25 -429.28)"/><path class="cls-4" d="M621.28,511.12a4.28,4.28,0,0,1,1.66,1.69,5.06,5.06,0,0,1,.6,2.48,5,5,0,0,1-.6,2.46,4.35,4.35,0,0,1-1.66,1.69,4.67,4.67,0,0,1-2.38.62,4.42,4.42,0,0,1-2.28-.61,4.11,4.11,0,0,1-1.57-1.68V520h-.87V506.63h.9v6.1a4.11,4.11,0,0,1,1.57-1.63,4.39,4.39,0,0,1,2.25-.58A4.75,4.75,0,0,1,621.28,511.12Zm-.49,7.62a3.52,3.52,0,0,0,1.36-1.4,4.55,4.55,0,0,0,0-4.11,3.59,3.59,0,0,0-1.36-1.4,4,4,0,0,0-3.88,0,3.64,3.64,0,0,0-1.35,1.4,4.55,4.55,0,0,0,0,4.11,3.57,3.57,0,0,0,1.35,1.4,3.94,3.94,0,0,0,3.88,0Z" transform="translate(-182.25 -429.28)"/><path class="cls-4" d="M626.1,519.71a4.31,4.31,0,0,1-1.6-.86l.41-.72a5,5,0,0,0,1.49.81,5.5,5.5,0,0,0,1.9.32,3.74,3.74,0,0,0,2.09-.46,1.51,1.51,0,0,0,.68-1.3,1.24,1.24,0,0,0-.37-.94,2.43,2.43,0,0,0-.91-.5,15.22,15.22,0,0,0-1.49-.34,12.65,12.65,0,0,1-1.8-.43,2.8,2.8,0,0,1-1.17-.76,2,2,0,0,1-.49-1.44,2.24,2.24,0,0,1,.93-1.84,4.12,4.12,0,0,1,2.63-.73,6.45,6.45,0,0,1,1.79.25,4.81,4.81,0,0,1,1.44.66l-.42.72a4.55,4.55,0,0,0-1.31-.63,5.5,5.5,0,0,0-1.51-.21,3.36,3.36,0,0,0-2,.48,1.51,1.51,0,0,0-.67,1.28,1.27,1.27,0,0,0,.38,1,2.26,2.26,0,0,0,.92.52,14.16,14.16,0,0,0,1.54.37,14.19,14.19,0,0,1,1.78.43,2.64,2.64,0,0,1,1.14.73,1.94,1.94,0,0,1,.47,1.38,2.2,2.2,0,0,1-1,1.87,4.61,4.61,0,0,1-2.74.71A6.7,6.7,0,0,1,626.1,519.71Z" transform="translate(-182.25 -429.28)"/><path class="cls-4" d="M638.7,519.39a2.13,2.13,0,0,1-.86.49,3.16,3.16,0,0,1-1.07.18,2.33,2.33,0,0,1-2.55-2.56v-6.14h-1.73v-.77h1.73v-2h.9v2h3v.77h-3v6a1.93,1.93,0,0,0,.44,1.39,1.68,1.68,0,0,0,1.3.48,2.07,2.07,0,0,0,1.46-.52Z" transform="translate(-182.25 -429.28)"/><path class="cls-4" d="M643,511.06a4.31,4.31,0,0,1,2.23-.54v.88l-.22,0a3.15,3.15,0,0,0-2.45,1,4,4,0,0,0-.88,2.73V520h-.9v-9.39h.87v2.05A3.22,3.22,0,0,1,643,511.06Z" transform="translate(-182.25 -429.28)"/><path class="cls-4" d="M653.08,511.41A3.41,3.41,0,0,1,654,514v6h-.87v-1.67a3.13,3.13,0,0,1-1.31,1.29,4.45,4.45,0,0,1-2.07.46,3.86,3.86,0,0,1-2.48-.74,2.39,2.39,0,0,1-.9-2,2.43,2.43,0,0,1,.83-1.9,4.07,4.07,0,0,1,2.68-.72h3.22V514a2.67,2.67,0,0,0-.71-2,2.93,2.93,0,0,0-2.08-.68,5.11,5.11,0,0,0-1.79.32,4.52,4.52,0,0,0-1.45.87l-.45-.65a4.94,4.94,0,0,1,1.69-1,6,6,0,0,1,2.07-.35A3.71,3.71,0,0,1,653.08,511.41Zm-1.2,7.37a3.28,3.28,0,0,0,1.24-1.57v-1.76h-3.21a3.21,3.21,0,0,0-2,.5,1.68,1.68,0,0,0-.62,1.39,1.73,1.73,0,0,0,.68,1.45,3.12,3.12,0,0,0,1.93.53A3.49,3.49,0,0,0,651.88,518.78Z" transform="translate(-182.25 -429.28)"/><path class="cls-4" d="M658.57,519.44a4.32,4.32,0,0,1-1.69-1.7,4.87,4.87,0,0,1-.61-2.45,5,5,0,0,1,.61-2.48,4.29,4.29,0,0,1,1.69-1.69,5,5,0,0,1,2.45-.6,4.64,4.64,0,0,1,2.06.44,3.66,3.66,0,0,1,1.5,1.28l-.66.49a3.15,3.15,0,0,0-1.25-1.05,3.76,3.76,0,0,0-1.65-.35,3.92,3.92,0,0,0-2,.49,3.55,3.55,0,0,0-1.37,1.4,4.62,4.62,0,0,0,0,4.14,3.52,3.52,0,0,0,1.37,1.39,3.92,3.92,0,0,0,2,.5,3.76,3.76,0,0,0,1.65-.36,3.15,3.15,0,0,0,1.25-1l.66.49a3.66,3.66,0,0,1-1.5,1.28,4.65,4.65,0,0,1-2.06.45A4.87,4.87,0,0,1,658.57,519.44Z" transform="translate(-182.25 -429.28)"/><path class="cls-4" d="M671.6,519.39a2.09,2.09,0,0,1-.85.49,3.21,3.21,0,0,1-1.07.18,2.34,2.34,0,0,1-2.56-2.56v-6.14h-1.73v-.77h1.73v-2h.9v2h3v.77h-3v6a2,2,0,0,0,.44,1.39,1.7,1.7,0,0,0,1.31.48,2.09,2.09,0,0,0,1.46-.52Z" transform="translate(-182.25 -429.28)"/><path class="cls-4" d="M673.58,508.09a.66.66,0,0,1-.21-.51.72.72,0,0,1,.21-.52.75.75,0,0,1,.53-.22.73.73,0,0,1,.52.21.69.69,0,0,1,.21.51.74.74,0,0,1-1.26.53Zm.08,2.5h.89V520h-.89Z" transform="translate(-182.25 -429.28)"/><path class="cls-4" d="M679.17,519.44a4.36,4.36,0,0,1-1.68-1.7,5.25,5.25,0,0,1,0-4.91,4.43,4.43,0,0,1,1.68-1.7,5,5,0,0,1,4.81,0,4.43,4.43,0,0,1,1.68,1.7,5.25,5.25,0,0,1,0,4.91,4.36,4.36,0,0,1-1.68,1.7,5,5,0,0,1-4.81,0Zm4.34-.7a3.57,3.57,0,0,0,1.35-1.4,4.47,4.47,0,0,0,0-4.11,3.64,3.64,0,0,0-1.35-1.4,4,4,0,0,0-3.87,0,3.64,3.64,0,0,0-1.35,1.4,4.47,4.47,0,0,0,0,4.11,3.57,3.57,0,0,0,1.35,1.4,3.93,3.93,0,0,0,3.87,0Z" transform="translate(-182.25 -429.28)"/><path class="cls-4" d="M696,511.54a4,4,0,0,1,1,2.95V520h-.9v-5.41a3.38,3.38,0,0,0-.8-2.42,3,3,0,0,0-2.24-.82,3.44,3.44,0,0,0-2.61,1,3.65,3.65,0,0,0-1,2.66v5h-.9v-9.39h.87v2a3.55,3.55,0,0,1,1.45-1.55,4.46,4.46,0,0,1,2.27-.55A3.77,3.77,0,0,1,696,511.54Z" transform="translate(-182.25 -429.28)"/><path class="cls-4" d="M704.45,506.63h.9V520h-.9Z" transform="translate(-182.25 -429.28)"/><path class="cls-4" d="M714.55,511.41a3.45,3.45,0,0,1,.94,2.62v6h-.87v-1.67a3.19,3.19,0,0,1-1.31,1.29,4.45,4.45,0,0,1-2.07.46,3.84,3.84,0,0,1-2.48-.74,2.56,2.56,0,0,1-.07-3.85,4.06,4.06,0,0,1,2.67-.72h3.23V514a2.67,2.67,0,0,0-.71-2,2.93,2.93,0,0,0-2.08-.68,5.21,5.21,0,0,0-1.8.32,4.47,4.47,0,0,0-1.44.87l-.45-.65a4.85,4.85,0,0,1,1.69-1,6,6,0,0,1,2.07-.35A3.71,3.71,0,0,1,714.55,511.41Zm-1.2,7.37a3.28,3.28,0,0,0,1.24-1.57v-1.76h-3.21a3.21,3.21,0,0,0-2,.5,1.69,1.69,0,0,0-.63,1.39,1.74,1.74,0,0,0,.69,1.45,3.09,3.09,0,0,0,1.92.53A3.52,3.52,0,0,0,713.35,518.78Z" transform="translate(-182.25 -429.28)"/><path class="cls-4" d="M726.11,510.59l-4.83,10.67A4.28,4.28,0,0,1,720,523a2.8,2.8,0,0,1-1.68.52,3.3,3.3,0,0,1-1.22-.22,2.44,2.44,0,0,1-1-.63l.45-.68a2.36,2.36,0,0,0,1.75.74,1.89,1.89,0,0,0,1.17-.38,3.49,3.49,0,0,0,.9-1.3l.5-1.13-4.23-9.36h.95l3.77,8.4,3.76-8.4Z" transform="translate(-182.25 -429.28)"/><path class="cls-4" d="M735.29,515.5H727.2a4,4,0,0,0,.56,2,3.61,3.61,0,0,0,1.42,1.32,4.25,4.25,0,0,0,2,.47,4.34,4.34,0,0,0,1.7-.34,3.28,3.28,0,0,0,1.31-1l.52.6a4,4,0,0,1-1.54,1.13,5.15,5.15,0,0,1-2,.4,5,5,0,0,1-2.5-.62,4.43,4.43,0,0,1-1.72-1.69,4.89,4.89,0,0,1-.62-2.46,5.08,5.08,0,0,1,.59-2.46,4.26,4.26,0,0,1,1.61-1.7,4.37,4.37,0,0,1,2.3-.61,4.46,4.46,0,0,1,2.3.6,4.32,4.32,0,0,1,1.6,1.68,5.07,5.07,0,0,1,.58,2.45ZM729,511.75a3.36,3.36,0,0,0-1.27,1.24,4,4,0,0,0-.55,1.81h7.2a3.65,3.65,0,0,0-.54-1.8,3.46,3.46,0,0,0-1.28-1.24,3.51,3.51,0,0,0-1.78-.45A3.64,3.64,0,0,0,729,511.75Z" transform="translate(-182.25 -429.28)"/><path class="cls-4" d="M739.86,511.06a4.31,4.31,0,0,1,2.23-.54v.88l-.22,0a3.11,3.11,0,0,0-2.44,1,3.92,3.92,0,0,0-.89,2.73V520h-.9v-9.39h.87v2.05A3.32,3.32,0,0,1,739.86,511.06Z" transform="translate(-182.25 -429.28)"/><path class="cls-4" d="M748.39,508.09a.67.67,0,0,1-.22-.51.75.75,0,0,1,.74-.74.7.7,0,0,1,.52.21.67.67,0,0,1,.22.51.71.71,0,0,1-.22.53.7.7,0,0,1-.52.21A.72.72,0,0,1,748.39,508.09Zm.07,2.5h.9V520h-.9Z" transform="translate(-182.25 -429.28)"/><path class="cls-4" d="M760.09,511.54a4,4,0,0,1,1,2.95V520h-.9v-5.41a3.38,3.38,0,0,0-.8-2.42,3,3,0,0,0-2.25-.82,3.47,3.47,0,0,0-2.61,1,3.68,3.68,0,0,0-.95,2.66v5h-.9v-9.39h.86v2a3.67,3.67,0,0,1,1.45-1.55,4.5,4.5,0,0,1,2.28-.55A3.77,3.77,0,0,1,760.09,511.54Z" transform="translate(-182.25 -429.28)"/><path class="cls-4" d="M769.51,519.6a5.08,5.08,0,0,1-2-1.24l.41-.68a4.84,4.84,0,0,0,1.79,1.14,6.31,6.31,0,0,0,2.37.44,4.49,4.49,0,0,0,2.72-.68,2.13,2.13,0,0,0,.92-1.78,1.86,1.86,0,0,0-.49-1.35,3.16,3.16,0,0,0-1.21-.78,16.08,16.08,0,0,0-1.94-.55,18.76,18.76,0,0,1-2.22-.67,3.57,3.57,0,0,1-1.42-1,2.66,2.66,0,0,1-.59-1.81,3,3,0,0,1,.49-1.68,3.3,3.3,0,0,1,1.48-1.22,6.09,6.09,0,0,1,2.49-.45,7.24,7.24,0,0,1,2.06.31,5.85,5.85,0,0,1,1.74.83l-.34.74a5.8,5.8,0,0,0-1.66-.8,6.34,6.34,0,0,0-1.8-.27,4.22,4.22,0,0,0-2.64.71,2.18,2.18,0,0,0-.9,1.81,1.86,1.86,0,0,0,.48,1.35,3.24,3.24,0,0,0,1.21.78,17.42,17.42,0,0,0,2,.57,18.19,18.19,0,0,1,2.22.67,3.66,3.66,0,0,1,1.41,1,2.57,2.57,0,0,1,.58,1.77,3,3,0,0,1-.49,1.68,3.4,3.4,0,0,1-1.52,1.2,6.31,6.31,0,0,1-2.52.45A7.31,7.31,0,0,1,769.51,519.6Z" transform="translate(-182.25 -429.28)"/><path class="cls-4" d="M792.31,510.59,788.75,520h-.85l-3.17-8.15L781.54,520h-.82l-3.57-9.39H778l3.13,8.39,3.2-8.39h.78l3.18,8.37,3.17-8.37Z" transform="translate(-182.25 -429.28)"/><path class="cls-4" d="M793.88,508.09a.64.64,0,0,1-.22-.51.69.69,0,0,1,.22-.52.71.71,0,0,1,.52-.22.72.72,0,0,1,.52.21.69.69,0,0,1,.21.51.74.74,0,0,1-.21.53.72.72,0,0,1-.52.21A.7.7,0,0,1,793.88,508.09Zm.07,2.5h.9V520H794Z" transform="translate(-182.25 -429.28)"/><path class="cls-4" d="M799.26,509.22v1.37h3v.77h-3V520h-.9v-8.62h-1.73v-.77h1.73v-1.44a2.39,2.39,0,0,1,2.61-2.59,3.57,3.57,0,0,1,1,.15,2,2,0,0,1,.82.46l-.36.68a2.09,2.09,0,0,0-1.46-.52C799.84,507.33,799.26,508,799.26,509.22Z" transform="translate(-182.25 -429.28)"/><path class="cls-4" d="M808.31,519.39a2.16,2.16,0,0,1-.85.49,3.26,3.26,0,0,1-1.08.18,2.33,2.33,0,0,1-2.55-2.56v-6.14H802.1v-.77h1.73v-2h.9v2h3v.77h-3v6a2,2,0,0,0,.44,1.39,1.68,1.68,0,0,0,1.3.48,2.07,2.07,0,0,0,1.46-.52Z" transform="translate(-182.25 -429.28)"/><path class="cls-3" d="M538.17,434.83v64.4h-3.86L490.43,443.3v55.93h-4.7v-64.4h4l43.79,55.94V434.83Z" transform="translate(-182.25 -429.28)"/><path class="cls-3" d="M590.15,476.32h-41.3a20.05,20.05,0,0,0,2.85,10,18.28,18.28,0,0,0,7.22,6.76,21.77,21.77,0,0,0,10.26,2.39,22,22,0,0,0,8.69-1.7,17,17,0,0,0,6.67-5l2.67,3a20.5,20.5,0,0,1-7.87,5.8,27.39,27.39,0,0,1-23-1.11,22.69,22.69,0,0,1-8.79-8.65,24.88,24.88,0,0,1-3.17-12.6,26,26,0,0,1,3-12.56,22,22,0,0,1,8.23-8.69,23.8,23.8,0,0,1,23.51-.05,22,22,0,0,1,8.19,8.6,25.92,25.92,0,0,1,3,12.52Zm-31.92-19.18a17.26,17.26,0,0,0-6.49,6.35,20.67,20.67,0,0,0-2.8,9.25h36.8a19.38,19.38,0,0,0-2.76-9.2,17.86,17.86,0,0,0-15.64-8.65A18.42,18.42,0,0,0,558.23,457.14Z" transform="translate(-182.25 -429.28)"/><path class="cls-3" d="M618.76,496.2a11.65,11.65,0,0,1-4.37,2.53,17.21,17.21,0,0,1-5.47.87q-6.25,0-9.66-3.45t-3.4-9.61V455.16H587v-4h8.84V440.72h4.6v10.49h15.27v4H600.46v30.92q0,4.68,2.25,7.13c1.5,1.62,3.73,2.43,6.67,2.43a10.66,10.66,0,0,0,7.45-2.66Z" transform="translate(-182.25 -429.28)"/><path class="cls-3" d="M689.7,451.21l-18.22,48h-4.32L651,457.56l-16.28,41.67h-4.23l-18.22-48h4.42l16,42.87L649,451.21h4L669.27,494l16.19-42.78Z" transform="translate(-182.25 -429.28)"/><path class="cls-3" d="M695.91,496.47a22.54,22.54,0,0,1-8.61-8.69,26.84,26.84,0,0,1,0-25.12,22.54,22.54,0,0,1,8.61-8.69,25.65,25.65,0,0,1,24.56,0,22.45,22.45,0,0,1,8.6,8.69,26.77,26.77,0,0,1,0,25.12,22.45,22.45,0,0,1-8.6,8.69,25.65,25.65,0,0,1-24.56,0Zm22.17-3.59a18.45,18.45,0,0,0,6.9-7.17,23,23,0,0,0,0-21,18.52,18.52,0,0,0-6.9-7.17,20.25,20.25,0,0,0-19.78,0,18.38,18.38,0,0,0-6.9,7.17,23,23,0,0,0,0,21,18.32,18.32,0,0,0,6.9,7.17,20.25,20.25,0,0,0,19.78,0Z" transform="translate(-182.25 -429.28)"/><path class="cls-3" d="M748.21,453.65a21.86,21.86,0,0,1,11.41-2.81v4.51l-1.11-.09c-5.33,0-9.51,1.67-12.51,5s-4.51,8-4.51,13.94v25h-4.6v-48h4.42V461.7A16.58,16.58,0,0,1,748.21,453.65Z" transform="translate(-182.25 -429.28)"/><path class="cls-3" d="M779.86,473.56,767.34,485v14.26h-4.59V431h4.59v48.3l30.73-28.06H804l-20.7,19.41L806,499.23h-5.71Z" transform="translate(-182.25 -429.28)"/></g></svg>