<svg width="594" height="174" viewBox="0 0 594 174" fill="none" xmlns="http://www.w3.org/2000/svg">
<rect width="594" height="174" rx="25" fill="#FE7851"/>
<path d="M161.692 57.66V64.23H152.242V114H144.142V64.23H134.692V57.66H161.692ZM177.404 70.08H186.224C191.864 70.08 194.684 72.75 194.684 78.09V94.56H176.954V105C176.954 106.02 177.134 106.71 177.494 107.07C177.854 107.43 178.574 107.61 179.654 107.61H183.794C184.874 107.61 185.594 107.43 185.954 107.07C186.314 106.71 186.494 105.99 186.494 104.91V101.31H194.414V106.08C194.414 111.36 191.624 114 186.044 114H177.404C171.824 114 169.034 111.36 169.034 106.08V78.09C169.034 72.75 171.824 70.08 177.404 70.08ZM176.954 88.62H186.674V79.08C186.674 78.06 186.494 77.37 186.134 77.01C185.834 76.65 185.144 76.47 184.064 76.47H179.654C178.574 76.47 177.854 76.65 177.494 77.01C177.134 77.37 176.954 78.06 176.954 79.08V88.62ZM220.005 69.99H221.805V77.01H218.565C214.785 77.01 212.895 79.23 212.895 83.67V114H204.795V70.08H212.895V75.48C213.375 73.92 214.215 72.63 215.415 71.61C216.675 70.53 218.205 69.99 220.005 69.99ZM259.991 70.08H263.141C268.541 70.08 271.241 72.75 271.241 78.09V114H263.141V79.26C263.141 78.18 262.961 77.49 262.601 77.19C262.301 76.83 261.611 76.65 260.531 76.65H257.291C255.371 76.65 254.411 77.7 254.411 79.8V114H246.311V79.26C246.311 78.18 246.131 77.49 245.771 77.19C245.411 76.83 244.691 76.65 243.611 76.65H240.461C239.381 76.65 238.601 76.89 238.121 77.37C237.701 77.85 237.491 78.66 237.491 79.8V114H229.391V70.08H237.491V73.59C238.271 71.25 240.131 70.08 243.071 70.08H246.221C250.061 70.08 252.551 71.43 253.691 74.13C254.411 71.43 256.511 70.08 259.991 70.08ZM281.667 61.71V53.7H290.127V61.71H281.667ZM289.947 114H281.847V70.08H289.947V114ZM321.783 57.66H329.253V114H321.063L309.183 73.32V114H301.713V57.66H310.263L321.783 97.17V57.66ZM349.247 70.08H358.067C363.707 70.08 366.527 72.75 366.527 78.09V94.56H348.797V105C348.797 106.02 348.977 106.71 349.337 107.07C349.697 107.43 350.417 107.61 351.497 107.61H355.637C356.717 107.61 357.437 107.43 357.797 107.07C358.157 106.71 358.337 105.99 358.337 104.91V101.31H366.257V106.08C366.257 111.36 363.467 114 357.887 114H349.247C343.667 114 340.877 111.36 340.877 106.08V78.09C340.877 72.75 343.667 70.08 349.247 70.08ZM348.797 88.62H358.517V79.08C358.517 78.06 358.337 77.37 357.977 77.01C357.677 76.65 356.987 76.47 355.907 76.47H351.497C350.417 76.47 349.697 76.65 349.337 77.01C348.977 77.37 348.797 78.06 348.797 79.08V88.62ZM391.489 76.65H385.459V104.46C385.459 105.54 385.609 106.26 385.909 106.62C386.269 106.92 386.989 107.07 388.069 107.07H391.489V114H385.729C380.089 114 377.269 111.36 377.269 106.08V76.65H373.129V70.08H377.269V62.61H385.459V70.08H391.489V76.65ZM436.287 70.08H443.937L435.837 114H425.127L419.907 80.79L414.687 114H403.977L395.967 70.08H403.617L409.467 107.07L415.137 70.08H424.767L430.257 107.07L436.287 70.08ZM459.324 70.08H468.954C474.534 70.08 477.324 72.75 477.324 78.09V106.08C477.324 111.36 474.534 114 468.954 114H459.324C453.804 114 451.044 111.36 451.044 106.08V78.09C451.044 72.75 453.804 70.08 459.324 70.08ZM469.314 104.91V79.17C469.314 78.09 469.134 77.37 468.774 77.01C468.414 76.65 467.694 76.47 466.614 76.47H461.664C460.584 76.47 459.864 76.65 459.504 77.01C459.204 77.37 459.054 78.09 459.054 79.17V104.91C459.054 105.99 459.204 106.71 459.504 107.07C459.864 107.43 460.584 107.61 461.664 107.61H466.614C467.694 107.61 468.414 107.43 468.774 107.07C469.134 106.71 469.314 105.99 469.314 104.91ZM503.164 69.99H504.964V77.01H501.724C497.944 77.01 496.054 79.23 496.054 83.67V114H487.954V70.08H496.054V75.48C496.534 73.92 497.374 72.63 498.574 71.61C499.834 70.53 501.364 69.99 503.164 69.99ZM540.45 70.08L530.37 91.05L540.45 114H531.81L522.09 91.05L531.81 70.08H540.45ZM512.55 114V53.79H520.65V114H512.55Z" fill="white"/>
<path d="M119.5 87C119.5 104.397 105.397 118.5 88 118.5M119.5 87C119.5 69.603 105.397 55.5 88 55.5M119.5 87H56.5M88 118.5C70.603 118.5 56.5 104.397 56.5 87M88 118.5C88 118.5 102 108 102 87C102 66 88 55.5 88 55.5M88 118.5C88 118.5 74 108 74 87C74 66 88 55.5 88 55.5M56.5 87C56.5 69.603 70.603 55.5 88 55.5" stroke="white" stroke-width="6"/>
</svg>
