<svg width="1010" height="428" viewBox="0 0 1010 428" fill="none" xmlns="http://www.w3.org/2000/svg">
<rect x="2" y="101" width="179.034" height="89.6215" rx="35.8486" fill="#E4A951"/>
<rect x="4" y="103" width="175.034" height="85.6215" rx="33.8486" stroke="black" stroke-opacity="0.2" stroke-width="4"/>
<path d="M37.5065 142.392H41.069V152H43.5009V142.392H47.0634V140.364H37.5065V142.392ZM51.1274 152.17C53.2865 152.17 54.7411 151.119 55.082 149.5L52.8433 149.352C52.599 150.017 51.974 150.364 51.1672 150.364C49.957 150.364 49.1899 149.562 49.1899 148.261V148.256H55.1331V147.591C55.1331 144.625 53.3377 143.159 51.0308 143.159C48.4627 143.159 46.7979 144.983 46.7979 147.676C46.7979 150.443 48.4399 152.17 51.1274 152.17ZM49.1899 146.756C49.2411 145.761 49.9967 144.966 51.0706 144.966C52.1217 144.966 52.849 145.716 52.8547 146.756H49.1899ZM56.5367 152H58.9571V147.062C58.9571 145.989 59.7412 145.25 60.8094 145.25C61.1446 145.25 61.6048 145.307 61.8321 145.381V143.233C61.6162 143.182 61.3151 143.148 61.0707 143.148C60.0935 143.148 59.2923 143.716 58.9742 144.795H58.8832V143.273H56.5367V152ZM62.9075 152H65.328V146.761C65.328 145.795 65.9416 145.153 66.7484 145.153C67.5439 145.153 68.078 145.699 68.078 146.557V152H70.4246V146.67C70.4246 145.767 70.9416 145.153 71.8223 145.153C72.595 145.153 73.1746 145.636 73.1746 146.608V152H75.5893V146.131C75.5893 144.239 74.4643 143.159 72.8393 143.159C71.5609 143.159 70.5666 143.812 70.2087 144.812H70.1178C69.8393 143.801 68.9473 143.159 67.7484 143.159C66.5723 143.159 65.6803 143.784 65.3166 144.812H65.2143V143.273H62.9075V152ZM77.3253 152H79.7457V143.273H77.3253V152ZM78.5412 142.148C79.2628 142.148 79.8537 141.597 79.8537 140.92C79.8537 140.25 79.2628 139.699 78.5412 139.699C77.8253 139.699 77.2344 140.25 77.2344 140.92C77.2344 141.597 77.8253 142.148 78.5412 142.148ZM91.2871 140.364H88.8382V147.682H88.7359L83.7132 140.364H81.5541V152H84.0143V144.676H84.0996L89.1621 152H91.2871V140.364ZM97.0755 152.17C99.2346 152.17 100.689 151.119 101.03 149.5L98.7915 149.352C98.5471 150.017 97.9221 150.364 97.1153 150.364C95.9051 150.364 95.138 149.562 95.138 148.261V148.256H101.081V147.591C101.081 144.625 99.2858 143.159 96.979 143.159C94.4108 143.159 92.746 144.983 92.746 147.676C92.746 150.443 94.388 152.17 97.0755 152.17ZM95.138 146.756C95.1892 145.761 95.9449 144.966 97.0187 144.966C98.0699 144.966 98.7971 145.716 98.8028 146.756H95.138ZM107.127 143.273H105.485V141.182H103.064V143.273H101.871V145.091H103.064V149.636C103.053 151.347 104.218 152.193 105.973 152.119C106.598 152.097 107.042 151.972 107.286 151.892L106.905 150.091C106.786 150.114 106.53 150.17 106.303 150.17C105.82 150.17 105.485 149.989 105.485 149.318V145.091H107.127V143.273ZM110.249 152H112.806L114.306 146.511H114.414L115.914 152H118.476L120.846 143.273H118.403L117.073 149.102H116.999L115.567 143.273H113.164L111.755 149.136H111.675L110.323 143.273H107.874L110.249 152ZM125.685 152.17C128.333 152.17 129.981 150.358 129.981 147.67C129.981 144.966 128.333 143.159 125.685 143.159C123.038 143.159 121.39 144.966 121.39 147.67C121.39 150.358 123.038 152.17 125.685 152.17ZM125.697 150.295C124.475 150.295 123.85 149.176 123.85 147.653C123.85 146.131 124.475 145.006 125.697 145.006C126.896 145.006 127.521 146.131 127.521 147.653C127.521 149.176 126.896 150.295 125.697 150.295ZM131.379 152H133.799V147.062C133.799 145.989 134.583 145.25 135.651 145.25C135.987 145.25 136.447 145.307 136.674 145.381V143.233C136.458 143.182 136.157 143.148 135.913 143.148C134.935 143.148 134.134 143.716 133.816 144.795H133.725V143.273H131.379V152ZM137.75 152H140.17V149.227L140.823 148.483L143.204 152H146.039L142.636 147.051L145.875 143.273H143.096L140.301 146.585H140.17V140.364H137.75V152Z" fill="#333333"/>
<rect x="278.69" width="179.034" height="80" rx="32" fill="#85B6FF"/>
<rect x="280.69" y="2" width="175.034" height="76" rx="30" stroke="black" stroke-opacity="0.2" stroke-width="4"/>
<path d="M320.395 46H328.259V43.9716H322.855V41.1932H327.833V39.1648H322.855V36.392H328.236V34.3636H320.395V46ZM332.391 40.9545C332.397 39.8295 333.067 39.1705 334.044 39.1705C335.016 39.1705 335.601 39.8068 335.596 40.875V46H338.016V40.4432C338.016 38.4091 336.823 37.1591 335.005 37.1591C333.709 37.1591 332.772 37.7955 332.38 38.8125H332.277V37.2727H329.971V46H332.391V40.9545ZM347.572 37.2727H345.009L343.202 43.517H343.111L341.299 37.2727H338.742L341.793 46H344.52L347.572 37.2727ZM348.634 46H351.055V37.2727H348.634V46ZM349.85 36.1477C350.572 36.1477 351.163 35.5966 351.163 34.9205C351.163 34.25 350.572 33.6989 349.85 33.6989C349.134 33.6989 348.543 34.25 348.543 34.9205C348.543 35.5966 349.134 36.1477 349.85 36.1477ZM352.818 46H355.238V41.0625C355.238 39.9886 356.022 39.25 357.09 39.25C357.426 39.25 357.886 39.3068 358.113 39.3807V37.233C357.897 37.1818 357.596 37.1477 357.352 37.1477C356.374 37.1477 355.573 37.7159 355.255 38.7955H355.164V37.2727H352.818V46ZM362.725 46.1705C365.373 46.1705 367.021 44.358 367.021 41.6705C367.021 38.9659 365.373 37.1591 362.725 37.1591C360.078 37.1591 358.43 38.9659 358.43 41.6705C358.43 44.358 360.078 46.1705 362.725 46.1705ZM362.737 44.2955C361.515 44.2955 360.89 43.1761 360.89 41.6534C360.89 40.1307 361.515 39.0057 362.737 39.0057C363.936 39.0057 364.561 40.1307 364.561 41.6534C364.561 43.1761 363.936 44.2955 362.737 44.2955ZM370.839 40.9545C370.845 39.8295 371.515 39.1705 372.493 39.1705C373.464 39.1705 374.049 39.8068 374.044 40.875V46H376.464V40.4432C376.464 38.4091 375.271 37.1591 373.453 37.1591C372.157 37.1591 371.22 37.7955 370.828 38.8125H370.726V37.2727H368.419V46H370.839V40.9545ZM378.196 46H380.616V40.7614C380.616 39.7955 381.23 39.1534 382.037 39.1534C382.832 39.1534 383.366 39.6989 383.366 40.5568V46H385.713V40.6705C385.713 39.767 386.23 39.1534 387.111 39.1534C387.883 39.1534 388.463 39.6364 388.463 40.608V46H390.878V40.1307C390.878 38.2386 389.753 37.1591 388.128 37.1591C386.849 37.1591 385.855 37.8125 385.497 38.8125H385.406C385.128 37.8011 384.236 37.1591 383.037 37.1591C381.861 37.1591 380.969 37.7841 380.605 38.8125H380.503V37.2727H378.196V46ZM396.591 46.1705C398.75 46.1705 400.204 45.1193 400.545 43.5L398.307 43.3523C398.062 44.017 397.437 44.3636 396.631 44.3636C395.42 44.3636 394.653 43.5625 394.653 42.2614V42.2557H400.597V41.5909C400.597 38.625 398.801 37.1591 396.494 37.1591C393.926 37.1591 392.261 38.983 392.261 41.6761C392.261 44.4432 393.903 46.1705 396.591 46.1705ZM394.653 40.7557C394.704 39.7614 395.46 38.9659 396.534 38.9659C397.585 38.9659 398.312 39.7159 398.318 40.7557H394.653ZM404.421 40.9545C404.426 39.8295 405.097 39.1705 406.074 39.1705C407.046 39.1705 407.631 39.8068 407.625 40.875V46H410.046V40.4432C410.046 38.4091 408.852 37.1591 407.034 37.1591C405.739 37.1591 404.801 37.7955 404.409 38.8125H404.307V37.2727H402V46H404.421V40.9545ZM416.419 37.2727H414.777V35.1818H412.357V37.2727H411.164V39.0909H412.357V43.6364C412.345 45.3466 413.51 46.1932 415.266 46.1193C415.891 46.0966 416.334 45.9716 416.578 45.892L416.198 44.0909C416.078 44.1136 415.823 44.1705 415.595 44.1705C415.112 44.1705 414.777 43.9886 414.777 43.3182V39.0909H416.419V37.2727Z" fill="#333333"/>
<rect x="278.69" y="218.23" width="179.034" height="80" rx="32" fill="#85B6FF"/>
<rect x="280.69" y="220.23" width="175.034" height="76" rx="30" stroke="black" stroke-opacity="0.2" stroke-width="4"/>
<path d="M343.479 264.23H345.939V260.105H347.734L349.939 264.23H352.655L350.183 259.707C351.507 259.139 352.24 257.985 352.24 256.394C352.24 254.082 350.712 252.593 348.069 252.593H343.479V264.23ZM345.939 258.127V254.605H347.598C349.018 254.605 349.706 255.235 349.706 256.394C349.706 257.548 349.018 258.127 347.609 258.127H345.939ZM357.56 264.4C360.207 264.4 361.855 262.588 361.855 259.9C361.855 257.196 360.207 255.389 357.56 255.389C354.912 255.389 353.264 257.196 353.264 259.9C353.264 262.588 354.912 264.4 357.56 264.4ZM357.571 262.525C356.349 262.525 355.724 261.406 355.724 259.883C355.724 258.36 356.349 257.235 357.571 257.235C358.77 257.235 359.395 258.36 359.395 259.883C359.395 261.406 358.77 262.525 357.571 262.525ZM368.85 260.514C368.855 261.684 368.054 262.298 367.185 262.298C366.27 262.298 365.679 261.656 365.673 260.627V255.502H363.253V261.059C363.259 263.099 364.452 264.343 366.208 264.343C367.52 264.343 368.463 263.667 368.855 262.644H368.946V264.23H371.27V255.502H368.85V260.514ZM377.672 255.502H376.03V253.411H373.61V255.502H372.416V257.321H373.61V261.866C373.598 263.576 374.763 264.423 376.519 264.349C377.144 264.326 377.587 264.201 377.831 264.122L377.451 262.321C377.331 262.343 377.076 262.4 376.848 262.4C376.365 262.4 376.03 262.218 376.03 261.548V257.321H377.672V255.502ZM382.956 264.4C385.116 264.4 386.57 263.349 386.911 261.73L384.672 261.582C384.428 262.247 383.803 262.593 382.996 262.593C381.786 262.593 381.019 261.792 381.019 260.491V260.485H386.962V259.821C386.962 256.855 385.167 255.389 382.86 255.389C380.292 255.389 378.627 257.213 378.627 259.906C378.627 262.673 380.269 264.4 382.956 264.4ZM381.019 258.985C381.07 257.991 381.826 257.196 382.9 257.196C383.951 257.196 384.678 257.946 384.684 258.985H381.019ZM388.366 264.23H390.786V259.292C390.786 258.218 391.57 257.48 392.638 257.48C392.974 257.48 393.434 257.536 393.661 257.61V255.463C393.445 255.411 393.144 255.377 392.9 255.377C391.922 255.377 391.121 255.946 390.803 257.025H390.712V255.502H388.366V264.23Z" fill="#333333"/>
<path d="M185.034 144.311C184.206 144.311 183.534 144.982 183.534 145.811C183.534 146.639 184.206 147.311 185.034 147.311V144.311ZM275.75 41.0607C276.336 40.4749 276.336 39.5251 275.75 38.9393L266.204 29.3934C265.619 28.8076 264.669 28.8076 264.083 29.3934C263.497 29.9792 263.497 30.9289 264.083 31.5147L272.568 40L264.083 48.4853C263.497 49.0711 263.497 50.0208 264.083 50.6066C264.669 51.1924 265.619 51.1924 266.204 50.6066L275.75 41.0607ZM185.034 147.311H205.862V144.311H185.034V147.311ZM231.362 121.811V64H228.362V121.811H231.362ZM253.862 41.5H274.69V38.5H253.862V41.5ZM231.362 64C231.362 51.5736 241.436 41.5 253.862 41.5V38.5C239.779 38.5 228.362 49.9167 228.362 64H231.362ZM205.862 147.311C219.945 147.311 231.362 135.894 231.362 121.811H228.362C228.362 134.237 218.288 144.311 205.862 144.311V147.311Z" fill="#C4C4C4"/>
<path d="M185.034 144.311C184.206 144.311 183.534 144.982 183.534 145.811C183.534 146.639 184.206 147.311 185.034 147.311V144.311ZM275.75 259.29C276.336 258.704 276.336 257.755 275.75 257.169L266.204 247.623C265.619 247.037 264.669 247.037 264.083 247.623C263.497 248.209 263.497 249.159 264.083 249.744L272.568 258.23L264.083 266.715C263.497 267.301 263.497 268.25 264.083 268.836C264.669 269.422 265.619 269.422 266.204 268.836L275.75 259.29ZM185.034 147.311H205.862V144.311H185.034V147.311ZM228.362 169.811V234.23H231.362V169.811H228.362ZM253.862 259.73H274.69V256.73H253.862V259.73ZM228.362 234.23C228.362 248.313 239.779 259.73 253.862 259.73V256.73C241.436 256.73 231.362 246.656 231.362 234.23H228.362ZM205.862 147.311C218.288 147.311 228.362 157.384 228.362 169.811H231.362C231.362 155.728 219.945 144.311 205.862 144.311V147.311Z" fill="#C4C4C4"/>
<rect x="546" y="101" width="179.034" height="80" rx="32" fill="#C4C4C4"/>
<rect x="548" y="103" width="175.034" height="76" rx="30" stroke="black" stroke-opacity="0.2" stroke-width="4"/>
<path d="M593.688 139.438C593.364 136.75 591.33 135.205 588.636 135.205C585.563 135.205 583.216 137.375 583.216 141.182C583.216 144.977 585.523 147.159 588.636 147.159C591.619 147.159 593.421 145.176 593.688 143.034L591.199 143.023C590.966 144.267 589.989 144.983 588.676 144.983C586.909 144.983 585.71 143.67 585.71 141.182C585.71 138.761 586.892 137.381 588.693 137.381C590.04 137.381 591.011 138.159 591.199 139.438H593.688ZM599.174 147.17C601.821 147.17 603.469 145.358 603.469 142.67C603.469 139.966 601.821 138.159 599.174 138.159C596.526 138.159 594.878 139.966 594.878 142.67C594.878 145.358 596.526 147.17 599.174 147.17ZM599.185 145.295C597.963 145.295 597.338 144.176 597.338 142.653C597.338 141.131 597.963 140.006 599.185 140.006C600.384 140.006 601.009 141.131 601.009 142.653C601.009 144.176 600.384 145.295 599.185 145.295ZM607.287 141.955C607.293 140.83 607.963 140.17 608.941 140.17C609.912 140.17 610.498 140.807 610.492 141.875V147H612.912V141.443C612.912 139.409 611.719 138.159 609.901 138.159C608.605 138.159 607.668 138.795 607.276 139.812H607.174V138.273H604.867V147H607.287V141.955ZM619.337 138.273H617.604V137.688C617.604 137.097 617.843 136.75 618.553 136.75C618.843 136.75 619.138 136.812 619.331 136.875L619.758 135.057C619.456 134.966 618.792 134.818 618.047 134.818C616.405 134.818 615.184 135.744 615.184 137.642V138.273H613.951V140.091H615.184V147H617.604V140.091H619.337V138.273ZM620.64 147H623.06V138.273H620.64V147ZM621.856 137.148C622.577 137.148 623.168 136.597 623.168 135.92C623.168 135.25 622.577 134.699 621.856 134.699C621.14 134.699 620.549 135.25 620.549 135.92C620.549 136.597 621.14 137.148 621.856 137.148ZM628.755 150.455C631.249 150.455 633.022 149.318 633.022 147.085V138.273H630.619V139.739H630.528C630.204 139.028 629.494 138.159 628.033 138.159C626.119 138.159 624.499 139.648 624.499 142.619C624.499 145.523 626.073 146.875 628.039 146.875C629.431 146.875 630.21 146.176 630.528 145.455H630.63V147.051C630.63 148.25 629.863 148.716 628.812 148.716C627.744 148.716 627.204 148.25 627.005 147.722L624.766 148.023C625.056 149.398 626.403 150.455 628.755 150.455ZM628.806 145.057C627.619 145.057 626.971 144.114 626.971 142.608C626.971 141.125 627.607 140.085 628.806 140.085C629.982 140.085 630.641 141.08 630.641 142.608C630.641 144.148 629.971 145.057 628.806 145.057ZM640.369 143.284C640.374 144.455 639.573 145.068 638.704 145.068C637.789 145.068 637.198 144.426 637.193 143.398V138.273H634.772V143.83C634.778 145.869 635.971 147.114 637.727 147.114C639.039 147.114 639.982 146.438 640.374 145.415H640.465V147H642.789V138.273H640.369V143.284ZM644.549 147H646.97V142.062C646.97 140.989 647.754 140.25 648.822 140.25C649.157 140.25 649.618 140.307 649.845 140.381V138.233C649.629 138.182 649.328 138.148 649.083 138.148C648.106 138.148 647.305 138.716 646.987 139.795H646.896V138.273H644.549V147ZM653.159 147.165C654.449 147.165 655.284 146.602 655.71 145.79H655.778V147H658.074V141.114C658.074 139.034 656.312 138.159 654.369 138.159C652.278 138.159 650.903 139.159 650.568 140.75L652.807 140.932C652.971 140.352 653.488 139.926 654.358 139.926C655.182 139.926 655.653 140.341 655.653 141.057V141.091C655.653 141.653 655.057 141.727 653.54 141.875C651.812 142.034 650.261 142.614 650.261 144.562C650.261 146.29 651.494 147.165 653.159 147.165ZM653.852 145.494C653.108 145.494 652.574 145.148 652.574 144.483C652.574 143.801 653.136 143.466 653.988 143.347C654.517 143.273 655.38 143.148 655.67 142.955V143.881C655.67 144.795 654.915 145.494 653.852 145.494ZM664.418 138.273H662.775V136.182H660.355V138.273H659.162V140.091H660.355V144.636C660.344 146.347 661.508 147.193 663.264 147.119C663.889 147.097 664.332 146.972 664.577 146.892L664.196 145.091C664.077 145.114 663.821 145.17 663.594 145.17C663.111 145.17 662.775 144.989 662.775 144.318V140.091H664.418V138.273ZM665.818 147H668.239V138.273H665.818V147ZM667.034 137.148C667.756 137.148 668.347 136.597 668.347 135.92C668.347 135.25 667.756 134.699 667.034 134.699C666.318 134.699 665.727 135.25 665.727 135.92C665.727 136.597 666.318 137.148 667.034 137.148ZM673.945 147.17C676.593 147.17 678.24 145.358 678.24 142.67C678.24 139.966 676.593 138.159 673.945 138.159C671.297 138.159 669.649 139.966 669.649 142.67C669.649 145.358 671.297 147.17 673.945 147.17ZM673.956 145.295C672.735 145.295 672.11 144.176 672.11 142.653C672.11 141.131 672.735 140.006 673.956 140.006C675.155 140.006 675.78 141.131 675.78 142.653C675.78 144.176 675.155 145.295 673.956 145.295ZM682.059 141.955C682.064 140.83 682.735 140.17 683.712 140.17C684.684 140.17 685.269 140.807 685.263 141.875V147H687.684V141.443C687.684 139.409 686.49 138.159 684.672 138.159C683.377 138.159 682.439 138.795 682.047 139.812H681.945V138.273H679.638V147H682.059V141.955Z" fill="#333333"/>
<path d="M542 142.5C542.828 142.5 543.5 141.828 543.5 141C543.5 140.172 542.828 139.5 542 139.5V142.5ZM460.663 257.169C460.078 257.755 460.078 258.704 460.663 259.29L470.209 268.836C470.795 269.422 471.745 269.422 472.331 268.836C472.917 268.25 472.917 267.301 472.331 266.715L463.845 258.23L472.331 249.744C472.917 249.159 472.917 248.209 472.331 247.623C471.745 247.037 470.795 247.037 470.209 247.623L460.663 257.169ZM542 139.5H525.862V142.5H542V139.5ZM500.362 165V234.23H503.362V165H500.362ZM477.862 256.73H461.724V259.73H477.862V256.73ZM500.362 234.23C500.362 246.656 490.288 256.73 477.862 256.73V259.73C491.945 259.73 503.362 248.313 503.362 234.23H500.362ZM525.862 139.5C511.779 139.5 500.362 150.917 500.362 165H503.362C503.362 152.574 513.436 142.5 525.862 142.5V139.5Z" fill="#C4C4C4"/>
<rect x="546" y="320" width="179.034" height="80" rx="32" fill="#85B6FF"/>
<rect x="548" y="322" width="175.034" height="76" rx="30" stroke="black" stroke-opacity="0.2" stroke-width="4"/>
<path d="M613.974 366H616.435V361.875H618.23L620.435 366H623.15L620.679 361.477C622.003 360.909 622.736 359.756 622.736 358.165C622.736 355.852 621.207 354.364 618.565 354.364H613.974V366ZM616.435 359.898V356.375H618.094C619.514 356.375 620.202 357.006 620.202 358.165C620.202 359.318 619.514 359.898 618.105 359.898H616.435ZM628.055 366.17C630.703 366.17 632.351 364.358 632.351 361.67C632.351 358.966 630.703 357.159 628.055 357.159C625.408 357.159 623.76 358.966 623.76 361.67C623.76 364.358 625.408 366.17 628.055 366.17ZM628.067 364.295C626.845 364.295 626.22 363.176 626.22 361.653C626.22 360.131 626.845 359.006 628.067 359.006C629.266 359.006 629.891 360.131 629.891 361.653C629.891 363.176 629.266 364.295 628.067 364.295ZM639.345 362.284C639.351 363.455 638.55 364.068 637.681 364.068C636.766 364.068 636.175 363.426 636.169 362.398V357.273H633.749V362.83C633.754 364.869 634.948 366.114 636.703 366.114C638.016 366.114 638.959 365.438 639.351 364.415H639.442V366H641.766V357.273H639.345V362.284ZM648.168 357.273H646.526V355.182H644.105V357.273H642.912V359.091H644.105V363.636C644.094 365.347 645.259 366.193 647.015 366.119C647.64 366.097 648.083 365.972 648.327 365.892L647.946 364.091C647.827 364.114 647.571 364.17 647.344 364.17C646.861 364.17 646.526 363.989 646.526 363.318V359.091H648.168V357.273ZM653.452 366.17C655.611 366.17 657.066 365.119 657.407 363.5L655.168 363.352C654.924 364.017 654.299 364.364 653.492 364.364C652.282 364.364 651.515 363.562 651.515 362.261V362.256H657.458V361.591C657.458 358.625 655.662 357.159 653.356 357.159C650.787 357.159 649.123 358.983 649.123 361.676C649.123 364.443 650.765 366.17 653.452 366.17ZM651.515 360.756C651.566 359.761 652.321 358.966 653.395 358.966C654.446 358.966 655.174 359.716 655.179 360.756H651.515Z" fill="#333333"/>
<rect x="834" y="101" width="176" height="80" rx="32" fill="#85B6FF"/>
<rect x="836" y="103" width="172" height="76" rx="30" stroke="black" stroke-opacity="0.2" stroke-width="4"/>
<path d="M891.157 147H893.617V142.875H895.412L897.617 147H900.333L897.861 142.477C899.185 141.909 899.918 140.756 899.918 139.165C899.918 136.852 898.39 135.364 895.747 135.364H891.157V147ZM893.617 140.898V137.375H895.276C896.696 137.375 897.384 138.006 897.384 139.165C897.384 140.318 896.696 140.898 895.287 140.898H893.617ZM905.272 147.17C907.431 147.17 908.885 146.119 909.226 144.5L906.988 144.352C906.743 145.017 906.118 145.364 905.312 145.364C904.101 145.364 903.334 144.562 903.334 143.261V143.256H909.277V142.591C909.277 139.625 907.482 138.159 905.175 138.159C902.607 138.159 900.942 139.983 900.942 142.676C900.942 145.443 902.584 147.17 905.272 147.17ZM903.334 141.756C903.385 140.761 904.141 139.966 905.215 139.966C906.266 139.966 906.993 140.716 906.999 141.756H903.334ZM918.868 150.273V138.273H916.482V139.739H916.374C916.05 139.028 915.351 138.159 913.891 138.159C911.976 138.159 910.357 139.648 910.357 142.648C910.357 145.568 911.908 147.142 913.897 147.142C915.306 147.142 916.039 146.33 916.374 145.602H916.448V150.273H918.868ZM916.499 142.636C916.499 144.193 915.829 145.216 914.664 145.216C913.476 145.216 912.829 144.159 912.829 142.636C912.829 141.125 913.465 140.085 914.664 140.085C915.84 140.085 916.499 141.08 916.499 142.636ZM926.227 143.284C926.232 144.455 925.431 145.068 924.562 145.068C923.647 145.068 923.056 144.426 923.05 143.398V138.273H920.63V143.83C920.636 145.869 921.829 147.114 923.585 147.114C924.897 147.114 925.84 146.438 926.232 145.415H926.323V147H928.647V138.273H926.227V143.284ZM934.384 147.17C936.543 147.17 937.998 146.119 938.339 144.5L936.1 144.352C935.856 145.017 935.231 145.364 934.424 145.364C933.214 145.364 932.447 144.562 932.447 143.261V143.256H938.39V142.591C938.39 139.625 936.595 138.159 934.288 138.159C931.72 138.159 930.055 139.983 930.055 142.676C930.055 145.443 931.697 147.17 934.384 147.17ZM932.447 141.756C932.498 140.761 933.254 139.966 934.328 139.966C935.379 139.966 936.106 140.716 936.112 141.756H932.447ZM947.055 140.761C946.839 139.153 945.544 138.159 943.339 138.159C941.106 138.159 939.635 139.193 939.64 140.875C939.635 142.182 940.458 143.028 942.163 143.369L943.674 143.67C944.436 143.824 944.782 144.102 944.794 144.54C944.782 145.057 944.22 145.426 943.373 145.426C942.51 145.426 941.936 145.057 941.788 144.347L939.407 144.472C939.635 146.142 941.055 147.17 943.367 147.17C945.629 147.17 947.248 146.017 947.254 144.295C947.248 143.034 946.424 142.278 944.731 141.932L943.152 141.614C942.339 141.438 942.038 141.159 942.044 140.739C942.038 140.216 942.629 139.875 943.379 139.875C944.22 139.875 944.72 140.335 944.839 140.898L947.055 140.761ZM953.244 138.273H951.602V136.182H949.182V138.273H947.988V140.091H949.182V144.636C949.17 146.347 950.335 147.193 952.091 147.119C952.716 147.097 953.159 146.972 953.403 146.892L953.022 145.091C952.903 145.114 952.647 145.17 952.42 145.17C951.937 145.17 951.602 144.989 951.602 144.318V140.091H953.244V138.273Z" fill="#333333"/>
<path d="M637.017 185C637.017 184.172 636.346 183.5 635.517 183.5C634.689 183.5 634.017 184.172 634.017 185H637.017ZM634.457 317.061C635.042 317.646 635.992 317.646 636.578 317.061L646.124 307.515C646.71 306.929 646.71 305.979 646.124 305.393C645.538 304.808 644.588 304.808 644.003 305.393L635.517 313.879L627.032 305.393C626.446 304.808 625.496 304.808 624.911 305.393C624.325 305.979 624.325 306.929 624.911 307.515L634.457 317.061ZM634.017 185V316H637.017V185H634.017Z" fill="#C4C4C4"/>
<path d="M729.034 139.5C728.206 139.5 727.534 140.172 727.534 141C727.534 141.828 728.206 142.5 729.034 142.5V139.5ZM831.061 142.061C831.646 141.475 831.646 140.525 831.061 139.939L821.515 130.393C820.929 129.808 819.979 129.808 819.393 130.393C818.808 130.979 818.808 131.929 819.393 132.515L827.879 141L819.393 149.485C818.808 150.071 818.808 151.021 819.393 151.607C819.979 152.192 820.929 152.192 821.515 151.607L831.061 142.061ZM729.034 142.5H830V139.5H729.034V142.5Z" fill="#C4C4C4"/>
<path d="M634.017 97C634.017 97.8284 634.689 98.5 635.517 98.5C636.346 98.5 637.017 97.8284 637.017 97H634.017ZM460.663 38.9393C460.078 39.5251 460.078 40.4749 460.663 41.0607L470.209 50.6066C470.795 51.1924 471.745 51.1924 472.331 50.6066C472.917 50.0208 472.917 49.0711 472.331 48.4853L463.845 40L472.331 31.5147C472.917 30.9289 472.917 29.9792 472.331 29.3934C471.745 28.8076 470.795 28.8076 470.209 29.3934L460.663 38.9393ZM637.017 97V64H634.017V97H637.017ZM611.517 38.5H461.724V41.5H611.517V38.5ZM637.017 64C637.017 49.9167 625.601 38.5 611.517 38.5V41.5C623.944 41.5 634.017 51.5736 634.017 64H637.017Z" fill="#C4C4C4"/>
<path d="M2 312C2 298.745 42.0702 288 91.5 288C140.93 288 181 298.745 181 312V402C181 415.255 140.93 426 91.5 426C42.0702 426 2 415.255 2 402V312Z" fill="#F8F8F8"/>
<path d="M0 312C0 313.249 0.2725 314.458 0.774182 315.611L4.44181 314.014C4.1404 313.322 4 312.654 4 312H0ZM3.36069 319.368C4.68276 320.749 6.35516 322.041 8.30726 323.247L10.41 319.844C8.66166 318.764 7.27813 317.676 6.2502 316.602L3.36069 319.368ZM11.8683 325.209C13.5421 326.038 15.3736 326.832 17.3477 327.59L18.7819 323.856C16.9057 323.135 15.1896 322.39 13.6425 321.624L11.8683 325.209ZM21.077 328.924C22.8663 329.521 24.7532 330.093 26.7301 330.64L27.7956 326.784C25.8796 326.255 24.0598 325.702 22.3426 325.13L21.077 328.924ZM30.5377 331.632C32.3791 332.085 34.2883 332.518 36.2604 332.928L37.0755 329.012C35.1476 328.611 33.2853 328.189 31.4932 327.748L30.5377 331.632ZM40.1002 333.685C41.9761 334.035 43.9026 334.366 45.8759 334.677L46.4992 330.726C44.5611 330.42 42.6712 330.095 40.8333 329.753L40.1002 333.685ZM49.7367 335.252C51.6338 335.519 53.5699 335.768 55.5421 335.998L56.0064 332.025C54.0642 331.798 52.1589 331.553 50.2933 331.291L49.7367 335.252ZM59.4166 336.422C61.3284 336.618 63.2709 336.796 65.2416 336.957L65.567 332.97C63.623 332.812 61.7076 332.636 59.8235 332.443L59.4166 336.422ZM69.1294 337.249C71.0472 337.38 72.9893 337.495 74.9536 337.593L75.1526 333.598C73.2129 333.502 71.2956 333.388 69.403 333.258L69.1294 337.249ZM78.8457 337.763C80.7721 337.836 82.7178 337.892 84.681 337.932L84.7613 333.933C82.8215 333.894 80.8992 333.838 78.9965 333.766L78.8457 337.763ZM88.5741 337.987C89.5456 337.996 90.521 338 91.5 338V334C90.5324 334 89.5684 333.996 88.6083 333.988L88.5741 337.987ZM91.5 338C92.479 338 93.4544 337.996 94.4259 337.987L94.3916 333.988C93.4315 333.996 92.4676 334 91.5 334V338ZM98.319 337.932C100.282 337.892 102.228 337.836 104.154 337.763L104.004 333.766C102.101 333.838 100.178 333.894 98.2387 333.933L98.319 337.932ZM108.046 337.593C110.011 337.495 111.953 337.38 113.871 337.249L113.597 333.258C111.704 333.388 109.787 333.502 107.847 333.598L108.046 337.593ZM117.758 336.957C119.729 336.796 121.672 336.618 123.583 336.422L123.177 332.443C121.292 332.636 119.377 332.812 117.433 332.97L117.758 336.957ZM127.458 335.998C129.43 335.768 131.366 335.519 133.263 335.252L132.707 331.291C130.841 331.553 128.936 331.798 126.994 332.025L127.458 335.998ZM137.124 334.677C139.097 334.366 141.024 334.035 142.9 333.685L142.167 329.753C140.329 330.095 138.439 330.42 136.501 330.726L137.124 334.677ZM146.74 332.928C148.712 332.518 150.621 332.085 152.462 331.632L151.507 327.748C149.715 328.189 147.852 328.611 145.924 329.012L146.74 332.928ZM156.27 330.64C158.247 330.093 160.134 329.521 161.923 328.924L160.657 325.13C158.94 325.702 157.12 326.255 155.204 326.784L156.27 330.64ZM165.652 327.59C167.626 326.832 169.458 326.038 171.132 325.209L169.357 321.624C167.81 322.39 166.094 323.135 164.218 323.856L165.652 327.59ZM174.693 323.247C176.645 322.041 178.317 320.749 179.639 319.368L176.75 316.602C175.722 317.676 174.338 318.764 172.59 319.844L174.693 323.247ZM182.226 315.611C182.727 314.458 183 313.249 183 312H179C179 312.654 178.86 313.322 178.558 314.014L182.226 315.611ZM4 312C4 311.346 4.1404 310.678 4.44181 309.986L0.774182 308.389C0.2725 309.542 0 310.751 0 312H4ZM6.2502 307.398C7.27813 306.324 8.66166 305.236 10.41 304.156L8.30726 300.753C6.35516 301.959 4.68276 303.251 3.36069 304.632L6.2502 307.398ZM13.6425 302.376C15.1896 301.61 16.9057 300.865 18.7819 300.144L17.3477 296.41C15.3736 297.168 13.5421 297.962 11.8683 298.791L13.6425 302.376ZM22.3426 298.87C24.0598 298.298 25.8796 297.745 27.7956 297.216L26.7301 293.36C24.7532 293.907 22.8663 294.479 21.077 295.076L22.3426 298.87ZM31.4932 296.252C33.2853 295.811 35.1476 295.389 37.0755 294.988L36.2604 291.072C34.2883 291.482 32.3791 291.915 30.5377 292.368L31.4932 296.252ZM40.8333 294.247C42.6712 293.905 44.5611 293.58 46.4992 293.274L45.8759 289.323C43.9026 289.634 41.9761 289.965 40.1002 290.315L40.8333 294.247ZM50.2933 292.709C52.1589 292.447 54.0642 292.202 56.0064 291.975L55.5421 288.002C53.5699 288.232 51.6338 288.481 49.7367 288.748L50.2933 292.709ZM59.8235 291.557C61.7076 291.364 63.623 291.188 65.567 291.03L65.2416 287.043C63.2709 287.204 61.3284 287.382 59.4166 287.578L59.8235 291.557ZM69.403 290.742C71.2956 290.612 73.2129 290.498 75.1526 290.402L74.9536 286.407C72.9893 286.505 71.0472 286.62 69.1294 286.751L69.403 290.742ZM78.9965 290.234C80.8992 290.162 82.8215 290.106 84.7613 290.067L84.681 286.068C82.7178 286.108 80.7721 286.164 78.8457 286.237L78.9965 290.234ZM88.6083 290.012C89.5684 290.004 90.5324 290 91.5 290V286C90.521 286 89.5456 286.004 88.5741 286.013L88.6083 290.012ZM91.5 290C92.4676 290 93.4315 290.004 94.3916 290.012L94.4259 286.013C93.4544 286.004 92.479 286 91.5 286V290ZM98.2387 290.067C100.178 290.106 102.101 290.162 104.004 290.234L104.154 286.237C102.228 286.164 100.282 286.108 98.319 286.068L98.2387 290.067ZM107.847 290.402C109.787 290.498 111.704 290.612 113.597 290.742L113.871 286.751C111.953 286.62 110.011 286.505 108.046 286.407L107.847 290.402ZM117.433 291.03C119.377 291.188 121.292 291.364 123.177 291.557L123.583 287.578C121.672 287.382 119.729 287.204 117.758 287.043L117.433 291.03ZM126.994 291.975C128.936 292.202 130.841 292.447 132.707 292.709L133.263 288.748C131.366 288.481 129.43 288.232 127.458 288.002L126.994 291.975ZM136.501 293.274C138.439 293.58 140.329 293.905 142.167 294.247L142.9 290.315C141.024 289.965 139.097 289.634 137.124 289.323L136.501 293.274ZM145.924 294.988C147.852 295.389 149.715 295.811 151.507 296.252L152.462 292.368C150.621 291.915 148.712 291.482 146.74 291.072L145.924 294.988ZM155.204 297.216C157.12 297.745 158.94 298.298 160.657 298.87L161.923 295.076C160.134 294.479 158.247 293.907 156.27 293.36L155.204 297.216ZM164.218 300.144C166.094 300.865 167.81 301.61 169.357 302.376L171.132 298.791C169.458 297.962 167.626 297.168 165.652 296.41L164.218 300.144ZM172.59 304.156C174.338 305.236 175.722 306.324 176.75 307.398L179.639 304.632C178.317 303.251 176.645 301.959 174.693 300.753L172.59 304.156ZM178.558 309.986C178.86 310.678 179 311.346 179 312H183C183 310.751 182.727 309.542 182.226 308.389L178.558 309.986ZM0 312V315H4V312H0ZM0 319V325H4V319H0ZM0 329V335H4V329H0ZM0 339V345H4V339H0ZM0 349V355H4V349H0ZM0 359V365H4V359H0ZM0 369V375H4V369H0ZM0 379V385H4V379H0ZM0 389V395H4V389H0ZM0 399V402H4V399H0ZM0 402C0 403.249 0.2725 404.458 0.774182 405.611L4.44181 404.014C4.1404 403.322 4 402.654 4 402H0ZM3.36069 409.368C4.68276 410.749 6.35516 412.041 8.30726 413.247L10.41 409.844C8.66166 408.764 7.27813 407.676 6.25019 406.602L3.36069 409.368ZM11.8683 415.209C13.5421 416.038 15.3736 416.832 17.3477 417.59L18.7819 413.856C16.9057 413.135 15.1896 412.39 13.6425 411.624L11.8683 415.209ZM21.077 418.924C22.8662 419.521 24.7532 420.093 26.7301 420.64L27.7956 416.784C25.8796 416.255 24.0598 415.702 22.3426 415.13L21.077 418.924ZM30.5377 421.632C32.3791 422.085 34.2883 422.518 36.2604 422.928L37.0755 419.012C35.1476 418.611 33.2853 418.189 31.4932 417.748L30.5377 421.632ZM40.1002 423.685C41.9761 424.035 43.9026 424.366 45.8759 424.677L46.4992 420.726C44.5611 420.42 42.6712 420.095 40.8333 419.753L40.1002 423.685ZM49.7367 425.252C51.6338 425.519 53.5699 425.768 55.5421 425.998L56.0064 422.025C54.0642 421.798 52.1589 421.553 50.2933 421.291L49.7367 425.252ZM59.4166 426.422C61.3284 426.618 63.2709 426.796 65.2416 426.957L65.567 422.97C63.623 422.812 61.7076 422.636 59.8235 422.443L59.4166 426.422ZM69.1294 427.249C71.0472 427.38 72.9893 427.495 74.9536 427.593L75.1526 423.598C73.2129 423.502 71.2956 423.388 69.403 423.258L69.1294 427.249ZM78.8457 427.763C80.7721 427.836 82.7178 427.892 84.681 427.932L84.7613 423.933C82.8215 423.894 80.8992 423.838 78.9965 423.766L78.8457 427.763ZM88.5741 427.987C89.5456 427.996 90.521 428 91.5 428V424C90.5324 424 89.5684 423.996 88.6083 423.988L88.5741 427.987ZM91.5 428C92.479 428 93.4544 427.996 94.4259 427.987L94.3916 423.988C93.4315 423.996 92.4676 424 91.5 424V428ZM98.319 427.932C100.282 427.892 102.228 427.836 104.154 427.763L104.004 423.766C102.101 423.838 100.178 423.894 98.2387 423.933L98.319 427.932ZM108.046 427.593C110.011 427.495 111.953 427.38 113.871 427.249L113.597 423.258C111.704 423.388 109.787 423.502 107.847 423.598L108.046 427.593ZM117.758 426.957C119.729 426.796 121.672 426.618 123.583 426.422L123.177 422.443C121.292 422.636 119.377 422.812 117.433 422.97L117.758 426.957ZM127.458 425.998C129.43 425.768 131.366 425.519 133.263 425.252L132.707 421.291C130.841 421.553 128.936 421.798 126.994 422.025L127.458 425.998ZM137.124 424.677C139.097 424.366 141.024 424.035 142.9 423.685L142.167 419.753C140.329 420.095 138.439 420.42 136.501 420.726L137.124 424.677ZM146.74 422.928C148.712 422.518 150.621 422.085 152.462 421.632L151.507 417.748C149.715 418.189 147.852 418.611 145.924 419.012L146.74 422.928ZM156.27 420.64C158.247 420.093 160.134 419.521 161.923 418.924L160.657 415.13C158.94 415.702 157.12 416.255 155.204 416.784L156.27 420.64ZM165.652 417.59C167.626 416.832 169.458 416.038 171.132 415.209L169.357 411.624C167.81 412.39 166.094 413.135 164.218 413.856L165.652 417.59ZM174.693 413.247C176.645 412.041 178.317 410.749 179.639 409.368L176.75 406.602C175.722 407.676 174.338 408.764 172.59 409.844L174.693 413.247ZM182.226 405.611C182.727 404.458 183 403.249 183 402H179C179 402.654 178.86 403.322 178.558 404.014L182.226 405.611ZM183 402V399H179V402H183ZM183 395V389H179V395H183ZM183 385V379H179V385H183ZM183 375V369H179V375H183ZM183 365V359H179V365H183ZM183 355V349H179V355H183ZM183 345V339H179V345H183ZM183 335V329H179V335H183ZM183 325V319H179V325H183ZM183 315V312H179V315H183Z" fill="#C6C6C6"/>
<path d="M44.0795 371.364H41.6306V378.682H41.5284L36.5056 371.364H34.3465V383H36.8068V375.676H36.892L41.9545 383H44.0795V371.364ZM52.2487 374.71H54.6066C54.5725 372.636 52.868 371.205 50.2771 371.205C47.7259 371.205 45.8566 372.614 45.868 374.727C45.8623 376.443 47.0725 377.426 49.0384 377.898L50.3055 378.216C51.5725 378.523 52.2771 378.886 52.2828 379.67C52.2771 380.523 51.4703 381.102 50.2203 381.102C48.9419 381.102 48.0214 380.511 47.9419 379.347H45.5612C45.6237 381.864 47.4248 383.165 50.2487 383.165C53.0896 383.165 54.76 381.807 54.7657 379.676C54.76 377.739 53.2998 376.71 51.2771 376.256L50.2316 376.006C49.2203 375.773 48.3737 375.398 48.3907 374.562C48.3907 373.812 49.0555 373.261 50.26 373.261C51.4362 373.261 52.1578 373.795 52.2487 374.71ZM63.432 371.364V378.71C63.432 380.04 62.5002 381 61.0684 381C59.6423 381 58.7048 380.04 58.7048 378.71V371.364H56.2445V378.92C56.2445 381.466 58.165 383.165 61.0684 383.165C63.9605 383.165 65.8923 381.466 65.8923 378.92V371.364H63.432ZM67.7404 383H70.2007V378.875H71.9961L74.2007 383H76.9166L74.445 378.477C75.7688 377.909 76.5018 376.756 76.5018 375.165C76.5018 372.852 74.9734 371.364 72.3313 371.364H67.7404V383ZM70.2007 376.898V373.375H71.8597C73.2802 373.375 73.9677 374.006 73.9677 375.165C73.9677 376.318 73.2802 376.898 71.8711 376.898H70.2007ZM78.0644 383H85.5133V380.972H80.5247V371.364H78.0644V383ZM86.9665 383H89.4268V378.875H91.2222L93.4268 383H96.1427L93.6711 378.477C94.995 377.909 95.7279 376.756 95.7279 375.165C95.7279 372.852 94.1995 371.364 91.5575 371.364H86.9665V383ZM89.4268 376.898V373.375H91.0859C92.5063 373.375 93.1938 374.006 93.1938 375.165C93.1938 376.318 92.5063 376.898 91.0972 376.898H89.4268ZM101.082 383.17C103.241 383.17 104.695 382.119 105.036 380.5L102.798 380.352C102.553 381.017 101.928 381.364 101.122 381.364C99.9113 381.364 99.1442 380.562 99.1442 379.261V379.256H105.087V378.591C105.087 375.625 103.292 374.159 100.985 374.159C98.417 374.159 96.7522 375.983 96.7522 378.676C96.7522 381.443 98.3942 383.17 101.082 383.17ZM99.1442 377.756C99.1954 376.761 99.9511 375.966 101.025 375.966C102.076 375.966 102.803 376.716 102.809 377.756H99.1442ZM114.678 386.273V374.273H112.292V375.739H112.184C111.86 375.028 111.161 374.159 109.701 374.159C107.786 374.159 106.167 375.648 106.167 378.648C106.167 381.568 107.718 383.142 109.707 383.142C111.116 383.142 111.849 382.33 112.184 381.602H112.258V386.273H114.678ZM112.309 378.636C112.309 380.193 111.639 381.216 110.474 381.216C109.286 381.216 108.639 380.159 108.639 378.636C108.639 377.125 109.275 376.085 110.474 376.085C111.65 376.085 112.309 377.08 112.309 378.636ZM122.037 379.284C122.042 380.455 121.241 381.068 120.372 381.068C119.457 381.068 118.866 380.426 118.86 379.398V374.273H116.44V379.83C116.446 381.869 117.639 383.114 119.395 383.114C120.707 383.114 121.65 382.438 122.042 381.415H122.133V383H124.457V374.273H122.037V379.284ZM130.194 383.17C132.353 383.17 133.808 382.119 134.149 380.5L131.91 380.352C131.666 381.017 131.041 381.364 130.234 381.364C129.024 381.364 128.257 380.562 128.257 379.261V379.256H134.2V378.591C134.2 375.625 132.405 374.159 130.098 374.159C127.53 374.159 125.865 375.983 125.865 378.676C125.865 381.443 127.507 383.17 130.194 383.17ZM128.257 377.756C128.308 376.761 129.064 375.966 130.138 375.966C131.189 375.966 131.916 376.716 131.922 377.756H128.257ZM142.865 376.761C142.649 375.153 141.354 374.159 139.149 374.159C136.916 374.159 135.444 375.193 135.45 376.875C135.444 378.182 136.268 379.028 137.973 379.369L139.484 379.67C140.246 379.824 140.592 380.102 140.604 380.54C140.592 381.057 140.03 381.426 139.183 381.426C138.319 381.426 137.746 381.057 137.598 380.347L135.217 380.472C135.444 382.142 136.865 383.17 139.177 383.17C141.439 383.17 143.058 382.017 143.064 380.295C143.058 379.034 142.234 378.278 140.541 377.932L138.962 377.614C138.149 377.438 137.848 377.159 137.854 376.739C137.848 376.216 138.439 375.875 139.189 375.875C140.03 375.875 140.53 376.335 140.649 376.898L142.865 376.761ZM149.054 374.273H147.412V372.182H144.992V374.273H143.798V376.091H144.992V380.636C144.98 382.347 146.145 383.193 147.901 383.119C148.526 383.097 148.969 382.972 149.213 382.892L148.832 381.091C148.713 381.114 148.457 381.17 148.23 381.17C147.747 381.17 147.412 380.989 147.412 380.318V376.091H149.054V374.273Z" fill="#333333"/>
<path d="M92.5779 193.561C91.9921 192.975 91.0424 192.975 90.4566 193.561L80.9106 203.107C80.3249 203.693 80.3249 204.642 80.9106 205.228C81.4964 205.814 82.4462 205.814 83.032 205.228L91.5172 196.743L100.003 205.228C100.588 205.814 101.538 205.814 102.124 205.228C102.71 204.642 102.71 203.693 102.124 203.107L92.5779 193.561ZM90.4393 285.061C91.0251 285.646 91.9749 285.646 92.5607 285.061L102.107 275.515C102.692 274.929 102.692 273.979 102.107 273.393C101.521 272.808 100.571 272.808 99.9853 273.393L91.5 281.879L83.0147 273.393C82.4289 272.808 81.4792 272.808 80.8934 273.393C80.3076 273.979 80.3076 274.929 80.8934 275.515L90.4393 285.061ZM90.0172 194.622V239.302H93.0172V194.622H90.0172ZM90 239.319V284H93V239.319H90ZM91.5086 237.811C90.6754 237.811 90 238.486 90 239.319H93C93 240.143 92.3323 240.811 91.5086 240.811V237.811ZM90.0172 239.302C90.0172 238.479 90.6847 237.811 91.5086 237.811V240.811C92.3421 240.811 93.0172 240.135 93.0172 239.302H90.0172Z" fill="#C4C4C4"/>
<path d="M369.707 302.23C369.707 301.401 369.035 300.73 368.207 300.73C367.378 300.73 366.707 301.401 366.707 302.23H369.707ZM543.061 361.061C543.646 360.475 543.646 359.525 543.061 358.939L533.515 349.393C532.929 348.808 531.979 348.808 531.393 349.393C530.808 349.979 530.808 350.929 531.393 351.515L539.879 360L531.393 368.485C530.808 369.071 530.808 370.021 531.393 370.607C531.979 371.192 532.929 371.192 533.515 370.607L543.061 361.061ZM366.707 302.23V336H369.707V302.23H366.707ZM392.207 361.5H542V358.5H392.207V361.5ZM366.707 336C366.707 350.083 378.124 361.5 392.207 361.5V358.5C379.781 358.5 369.707 348.426 369.707 336H366.707Z" fill="#C4C4C4"/>
<path d="M729.034 358.5C728.206 358.5 727.534 359.172 727.534 360C727.534 360.828 728.206 361.5 729.034 361.5V358.5ZM923.061 183.939C922.475 183.354 921.525 183.354 920.939 183.939L911.393 193.485C910.808 194.071 910.808 195.021 911.393 195.607C911.979 196.192 912.929 196.192 913.515 195.607L922 187.121L930.485 195.607C931.071 196.192 932.021 196.192 932.607 195.607C933.192 195.021 933.192 194.071 932.607 193.485L923.061 183.939ZM729.034 361.5H898V358.5H729.034V361.5ZM923.5 336V185H920.5V336H923.5ZM898 361.5C912.083 361.5 923.5 350.083 923.5 336H920.5C920.5 348.426 910.426 358.5 898 358.5V361.5Z" fill="#C4C4C4"/>
</svg>
